<svg width="250" height="132" viewBox="0 0 250 132" fill="none" xmlns="http://www.w3.org/2000/svg">
<path d="M12.6667 5.93332C25.8667 12.6 36.9333 20.3333 51.7333 33C68.1333 47 73.8667 56.8667 67.4667 60.3333C62 63.1333 56 61.6667 39.8667 53.5333C26.5333 46.8667 22.1333 45.2667 15.0667 44.7333C6.93333 44.0667 6.26666 44.2 3.6 47.6667C1.46666 50.4667 0.666663 53.1333 0.799997 58.2C0.799997 61.9333 1.2 64.0667 1.6 63C6.13333 50.7333 22.4 52.7333 45.7333 68.3333C65.4667 81.5333 96.8 113.133 104.267 127.4C109.333 137 108 127.8 102.8 117C97.3333 105.667 89.0667 94.2 76.8 81.4L67.6 71.6667L73.4667 72.2C80.8 72.7333 83.3333 70.7333 83.3333 64.4667C83.3333 57.4 76.5333 46.6 64.8 34.8667C47.3333 17.5333 25.4667 4.99999 6 0.999991C2.66666 0.333324 4.66666 1.79999 12.6667 5.93332Z" fill="#B7B6D1" fill-opacity="0.94902"/>
<path d="M71.6 24.7333C67.7333 28.7333 67.8667 33 72 37C78 43.1333 87.3333 39.5333 87.3333 31C87.3333 22.6 77.3333 18.6 71.6 24.7333Z" fill="#B7B6D1"/>
<path d="M92.6667 59V71H96.6667H100.667V59V47H96.6667H92.6667V59Z" fill="#000000"/>
<path d="M105.6 47.9333C105.067 48.3333 104.667 53.8 104.667 59.9333C104.667 70.8667 104.667 71 108 71C111.067 71 111.333 70.6 111.333 64.2V57.4L118.933 64.3333C123.867 68.6 127.6 71 129.333 70.7333C131.733 70.3333 132 69.1333 132.4 58.6C132.8 47 132.8 47 129.467 47C126.4 47 126.133 47.5333 125.733 53.6667L125.333 60.3333L118 53.6667C111.067 47.5333 107.6 45.8 105.6 47.9333Z" fill="#000000"/>
<path d="M138.933 50.2L136.667 53.6667H145.333C155.067 53.6667 159.333 55.2667 159.333 58.7333C159.333 62.7333 156.533 64.3333 149.733 64.3333C143.467 64.3333 143.333 64.2 143.333 60.3333C143.333 57 142.8 56.3333 140 56.3333C136.8 56.3333 136.667 56.7333 136.667 63.8V71.2667L147.867 70.8667C157.6 70.3333 159.6 69.9333 162.533 67.1333C167.333 62.6 167.333 55.4 162.667 51C159.867 48.3333 157.467 47.6667 150.133 47.2667C141.6 46.7333 141.067 46.8667 138.933 50.2Z" fill="#000000"/>
<path d="M170 59V71H174H178V59V47H174H170V59Z" fill="#000000"/>
<path d="M188.8 58.3333C184.267 64.6 180.667 70.0667 180.667 70.3333C180.667 70.7333 182.4 71 184.667 71C188.4 71 192.267 67.2667 198.133 57.6667C199.067 56.0667 199.867 56.3333 202.667 59.6667L206 63.6667L201.6 64.0667C197.467 64.4667 192.667 67.5333 192.667 69.9333C192.667 70.4667 198.667 71 206.133 71H219.467L211.2 59C200.533 43.2667 199.6 43.2667 188.8 58.3333Z" fill="#000000"/>
<path d="M222.933 47.9333C222.4 48.3333 222 53.8 222 59.9333C222 70.8667 222 71 225.333 71C228.4 71 228.667 70.6 228.667 64.2V57.4L236.133 64.2C243.733 71.1333 247.733 72.6 249.2 68.8667C249.6 67.6667 250 62.3333 250 56.8667C250 47.2667 249.867 47 246.8 47C243.733 47 243.467 47.5333 243.067 53.8L242.667 60.4667L235.067 53.8C228 47.4 224.933 45.9333 222.933 47.9333Z" fill="#000000"/>
<path d="M95.3333 78.3333C93.8667 80.0667 94.5333 80.3333 101.067 80.3333C108.4 80.3333 111.867 81.9333 107.867 83.5333C106.667 83.9333 103.067 84.3333 99.8667 84.3333C94.5333 84.3333 94 84.6 94 87.6667C94 91.2667 97.2 92.3333 98.5333 89C98.9333 87.9333 100.667 87 102.4 87C104.267 87 106.4 87.9333 107.333 89C108.267 90.0667 110.133 91 111.6 91C113.867 91 114 90.6 112.8 89.1333C111.6 87.6667 111.6 86.6 112.933 84.4667C114.267 82.3333 114.267 81 113.2 79.2667C111.2 76.0667 97.8667 75.2667 95.3333 78.3333Z" fill="#000000"/>
<path d="M118 82.2C118 89.4 120 91.2667 127.867 91.2667C135.733 91.4 138 89.4 138 82.2C138 77.2667 137.6 76.3333 135.333 76.3333C133.067 76.3333 132.667 77.2667 132.667 81.5333C132.667 87.5333 131.333 89 126.533 87.8C123.867 87.1333 123.333 86.2 123.333 81.6667C123.333 77.2667 122.933 76.3333 120.667 76.3333C118.4 76.3333 118 77.2667 118 82.2Z" fill="#000000"/>
<path d="M142 83.6667C142 89.2667 142.4 91 144 91C145.333 91 146 89.6667 146 86.7333V82.4667L150.4 86.7333C157.2 93.2667 159.333 92.4667 159.333 83.6667C159.333 78.0667 158.933 76.3333 157.333 76.3333C156 76.3333 155.333 77.6667 155.333 80.4667V84.6L150.133 80.4667C147.333 78.2 144.267 76.3333 143.467 76.3333C142.533 76.3333 142 79.1333 142 83.6667Z" fill="#000000"/>
<path d="M164.267 77.2667C163.733 77.6667 163.333 81 163.333 84.6C163.333 89.4 163.867 91 165.333 91C166.533 91 167.333 89.8 167.333 87.6667C167.333 83.5333 168 83.5333 173.6 87.8C179.867 92.6 182 91.2667 182 83C182 77.2667 181.6 76.3333 179.333 76.3333C177.2 76.3333 176.667 77.2667 176.667 80.6V84.8667L172.267 80.6C167.867 76.3333 165.867 75.5333 164.267 77.2667Z" fill="#000000"/>
<path d="M186 83.6667V91.1333L193.6 90.7333C203.333 90.2 205.067 87.1333 195.733 86.7333C190.133 86.6 190 86.4667 194.267 86.0667C196.933 85.8 199.867 84.6 200.667 83.5333C202.133 81.9333 201.333 81.6667 195.867 81.4L189.333 81.2667L195.2 80.4667C204.533 79.1333 203.867 76.3333 194.133 76.3333H186V83.6667Z" fill="#000000"/>
<path d="M207.333 78.3333C205.867 80.0667 206.533 80.3333 213.067 80.3333C220.4 80.3333 223.867 81.9333 219.867 83.5333C218.667 83.9333 215.067 84.3333 211.867 84.3333C206.533 84.3333 206 84.6 206 87.6667C206 91.2667 209.2 92.3333 210.533 89C210.933 87.9333 212.667 87 214.4 87C216.267 87 218.4 87.9333 219.333 89C220.267 90.0667 222.133 91 223.6 91C225.867 91 226 90.6 224.8 89.1333C223.6 87.6667 223.6 86.6 224.933 84.4667C226.267 82.3333 226.267 81 225.2 79.2667C223.2 76.0667 209.867 75.2667 207.333 78.3333Z" fill="#000000"/>
<path d="M231.733 77.2667C230.8 77.5333 230 79.2667 230 81.1333C230 84.4667 231.467 85.1333 240.667 86.0667C244.533 86.4667 244.4 86.6 239.2 86.7333C235.467 86.8667 232.267 87.8 231.333 89C229.867 90.7333 230.933 91 239.067 91C247.333 91 248.533 90.6 249.333 88.3333C250.667 84.2 249.067 83 242 83C238.4 83 235.067 82.3333 234.667 81.6667C234.133 80.8667 236.4 80.3333 240.4 80.3333C245.067 80.3333 247.333 79.8 247.867 78.3333C248.4 76.7333 247.2 76.3333 240.933 76.4667C236.8 76.4667 232.533 76.8667 231.733 77.2667Z" fill="#000000"/>
</svg>
