<svg width="263" height="131" viewBox="0 0 263 131" fill="none" xmlns="http://www.w3.org/2000/svg">
<path d="M71.8141 23.8876C67.9475 27.8876 68.0808 32.1543 72.2141 36.1543C78.2141 42.2876 87.5475 38.6876 87.5475 30.1543C87.5475 21.7543 77.5475 17.7543 71.8141 23.8876Z" fill="#B7B6D1"/>
<path d="M11.7694 5.08761C24.8457 11.7543 35.8086 19.4876 50.4699 32.1543C66.7161 46.1543 72.3957 56.0209 66.0557 59.4876C60.6403 62.2876 54.6965 60.8209 38.7144 52.6876C25.5061 46.0209 21.1473 44.4209 14.1469 43.8876C6.08984 43.2209 5.42943 43.3543 2.78776 46.8209C0.674427 49.6209 -0.118073 52.2876 0.0140106 57.3543C0.0140106 61.0876 0.410261 63.2209 0.806511 62.1543C5.29735 49.8876 21.4115 51.8876 44.5261 67.4876C64.0744 80.6876 95.114 112.288 102.511 126.554C107.53 136.154 106.209 126.954 101.058 116.154C95.6424 104.821 87.4532 93.3543 75.3015 80.5543L66.1878 70.8209L71.9994 71.3543C79.264 71.8876 81.7736 69.8876 81.7736 63.6209C81.7736 56.5543 75.0374 45.7543 63.414 34.0209C46.1111 16.6876 24.4494 4.15427 5.16526 0.154266C1.86318 -0.5124 3.84443 0.954275 11.7694 5.08761Z" fill="#B7B6D1" fill-opacity="0.94902"/>
<path d="M105.667 63V75H109.167H112.667V63V51H109.167H105.667V63Z" fill="#d3d3d3"/>
<path d="M118.567 51.9333C118.052 52.3333 117.667 57.8 117.667 63.9333C117.667 74.8667 117.667 75 120.881 75C123.837 75 124.094 74.6 124.094 68.2V61.4L131.422 68.3333C136.179 72.6 139.778 75 141.45 74.7333C143.764 74.3333 144.021 73.1333 144.406 62.6C144.792 51 144.792 51 141.578 51C138.621 51 138.364 51.5333 137.979 57.6667L137.593 64.3333L130.522 57.6667C123.837 51.5333 120.495 49.8 118.567 51.9333Z" fill="#d3d3d3"/>
<path d="M151.856 54.2L149.667 57.6667H158.039C167.443 57.6667 171.565 59.2667 171.565 62.7333C171.565 66.7333 168.86 68.3333 162.29 68.3333C156.236 68.3333 156.107 68.2 156.107 64.3333C156.107 61 155.592 60.3333 152.887 60.3333C149.795 60.3333 149.667 60.7333 149.667 67.8V75.2667L160.487 74.8667C169.89 74.3333 171.822 73.9333 174.656 71.1333C179.293 66.6 179.293 59.4 174.785 55C172.08 52.3333 169.761 51.6667 162.677 51.2667C154.433 50.7333 153.917 50.8667 151.856 54.2Z" fill="#d3d3d3"/>
<path d="M183 63V75H187H191V63V51H187H183V63Z" fill="#d3d3d3"/>
<path d="M201.59 62.3333C197.174 68.6 193.667 74.0667 193.667 74.3333C193.667 74.7333 195.355 75 197.564 75C201.201 75 204.968 71.2667 210.683 61.6667C211.592 60.0667 212.372 60.3333 215.1 63.6667L218.347 67.6667L214.06 68.0667C210.034 68.4667 205.357 71.5333 205.357 73.9333C205.357 74.4667 211.203 75 218.477 75H231.467L223.413 63C213.021 47.2667 212.112 47.2667 201.59 62.3333Z" fill="#d3d3d3"/>
<path d="M235.9 51.9333C235.386 52.3333 235 57.8 235 63.9333C235 74.8667 235 75 238.214 75C241.171 75 241.429 74.6 241.429 68.2V61.4L248.629 68.2C255.957 75.1333 259.814 76.6 261.229 72.8667C261.614 71.6667 262 66.3333 262 60.8667C262 51.2667 261.871 51 258.914 51C255.957 51 255.7 51.5333 255.314 57.8L254.929 64.4667L247.6 57.8C240.786 51.4 237.829 49.9333 235.9 51.9333Z" fill="#d3d3d3"/>
<path d="M109.333 82.3333C107.867 84.0667 108.533 84.3333 115.067 84.3333C122.4 84.3333 125.867 85.9333 121.867 87.5333C120.667 87.9333 117.067 88.3333 113.867 88.3333C108.533 88.3333 108 88.6 108 91.6667C108 95.2667 111.2 96.3333 112.533 93C112.933 91.9333 114.667 91 116.4 91C118.267 91 120.4 91.9333 121.333 93C122.267 94.0667 124.133 95 125.6 95C127.867 95 128 94.6 126.8 93.1333C125.6 91.6667 125.6 90.6 126.933 88.4667C128.267 86.3333 128.267 85 127.2 83.2667C125.2 80.0667 111.867 79.2667 109.333 82.3333Z" fill="#d3d3d3"/>
<path d="M131 86.2C131 93.4 133 95.2667 140.867 95.2667C148.733 95.4 151 93.4 151 86.2C151 81.2667 150.6 80.3333 148.333 80.3333C146.067 80.3333 145.667 81.2667 145.667 85.5333C145.667 91.5333 144.333 93 139.533 91.8C136.867 91.1333 136.333 90.2 136.333 85.6667C136.333 81.2667 135.933 80.3333 133.667 80.3333C131.4 80.3333 131 81.2667 131 86.2Z" fill="#d3d3d3"/>
<path d="M155 87.6667C155 93.2667 155.4 95 157 95C158.333 95 159 93.6667 159 90.7333V86.4667L163.4 90.7333C170.2 97.2667 172.333 96.4667 172.333 87.6667C172.333 82.0667 171.933 80.3333 170.333 80.3333C169 80.3333 168.333 81.6667 168.333 84.4667V88.6L163.133 84.4667C160.333 82.2 157.267 80.3333 156.467 80.3333C155.533 80.3333 155 83.1333 155 87.6667Z" fill="#d3d3d3"/>
<path d="M177.267 81.2667C176.733 81.6667 176.333 85 176.333 88.6C176.333 93.4 176.867 95 178.333 95C179.533 95 180.333 93.8 180.333 91.6667C180.333 87.5333 181 87.5333 186.6 91.8C192.867 96.6 195 95.2667 195 87C195 81.2667 194.6 80.3333 192.333 80.3333C190.2 80.3333 189.667 81.2667 189.667 84.6V88.8667L185.267 84.6C180.867 80.3333 178.867 79.5333 177.267 81.2667Z" fill="#d3d3d3"/>
<path d="M199 87.6667V95.1333L206.6 94.7333C216.333 94.2 218.067 91.1333 208.733 90.7333C203.133 90.6 203 90.4667 207.267 90.0667C209.933 89.8 212.867 88.6 213.667 87.5333C215.133 85.9333 214.333 85.6667 208.867 85.4L202.333 85.2667L208.2 84.4667C217.533 83.1333 216.867 80.3333 207.133 80.3333H199V87.6667Z" fill="#d3d3d3"/>
<path d="M220.333 82.3333C218.867 84.0667 219.533 84.3333 226.067 84.3333C233.4 84.3333 236.867 85.9333 232.867 87.5333C231.667 87.9333 228.067 88.3333 224.867 88.3333C219.533 88.3333 219 88.6 219 91.6667C219 95.2667 222.2 96.3333 223.533 93C223.933 91.9333 225.667 91 227.4 91C229.267 91 231.4 91.9333 232.333 93C233.267 94.0667 235.133 95 236.6 95C238.867 95 239 94.6 237.8 93.1333C236.6 91.6667 236.6 90.6 237.933 88.4667C239.267 86.3333 239.267 85 238.2 83.2667C236.2 80.0667 222.867 79.2667 220.333 82.3333Z" fill="#d3d3d3"/>
<path d="M244.733 81.2667C243.8 81.5333 243 83.2667 243 85.1333C243 88.4667 244.467 89.1333 253.667 90.0667C257.533 90.4667 257.4 90.6 252.2 90.7333C248.467 90.8667 245.267 91.8 244.333 93C242.867 94.7333 243.933 95 252.067 95C260.333 95 261.533 94.6 262.333 92.3333C263.667 88.2 262.067 87 255 87C251.4 87 248.067 86.3333 247.667 85.6667C247.133 84.8667 249.4 84.3333 253.4 84.3333C258.067 84.3333 260.333 83.8 260.867 82.3333C261.4 80.7333 260.2 80.3333 253.933 80.4667C249.8 80.4667 245.533 80.8667 244.733 81.2667Z" fill="#d3d3d3"/>
</svg>
